# xmcd
#
# Track frame offsets: 
#        150
#        12464
#        23673
#        39793
#        51656
#        63868
#        72993
#        83385
#        92462
#        105774
#        115653
#        129595
#        142621
#        149534
#        159628
#        162855
#        173653
#        175499
#        185785
#        195800
#        198972
#        202823
#        212430
#        220858
#        230885
#        244010
#
# Disc length: 3420 seconds
#
# Revision: 0
# Processed by: cddbd v1.5.2PL0 Copyright (c) Steve Scherf et al.
# Submitted via: ExactAudioCopy v0.99pb4
#
DISCID=560d5a1a
DTITLE=Porter Wagoner - A Rare Slice of Country
DYEAR=1951
DGENRE=Country
TTITLE0=I Love No One But You
TTITLE1=River Of Love
TTITLE2=Wedding Bells
TTITLE3=Walk Softly
TTITLE4=Let Old Mother Nature Have Her Way
TTITLE5=Wondering
TTITLE6=Baby, We're Really In Love
TTITLE7=I Betcha Ny Heart, I Love You
TTITLE8=Since You Went Away
TTITLE9=I Want To Be With You Always
TTITLE10=Be Glad That You Ain't Me
TTITLE11=Love At First Sight
TTITLE12=Comedy Chat With Red Foley
TTITLE13=If You Don't, Somebody Else Will
TTITLE14=If You Don't, Somebody Else Will (Reprise)
TTITLE15=I Thought I Heard You Call My Name
TTITLE16=Comedy Chat With Jim Reeves
TTITLE17=Uncle Pen
TTITLE18=Eat, Drink And Be Mary (Tomorrow You'll Cry)
TTITLE19=Comedy Chat With Jim Reeves
TTITLE20=Comedy Chat With Red Foley
TTITLE21=Settin' The Woods On Fire
TTITLE22=Pay Day
TTITLE23=A Satisfied Mind
TTITLE24=Good Morning Neighbour
TTITLE25=Tomorrow We'll Retire
EXTD=
EXTT0=
EXTT1=
EXTT2=
EXTT3=
EXTT4=
EXTT5=
EXTT6=
EXTT7=
EXTT8=
EXTT9=
EXTT10=
EXTT11=
EXTT12=
EXTT13=
EXTT14=
EXTT15=
EXTT16=
EXTT17=
EXTT18=
EXTT19=
EXTT20=
EXTT21=
EXTT22=
EXTT23=
EXTT24=
EXTT25=
PLAYORDER=
